<?xml version="1.0" encoding="UTF-8" standalone="no"?>
<!DOCTYPE svg PUBLIC "-//W3C//DTD SVG 1.1//EN" "http://www.w3.org/Graphics/SVG/1.1/DTD/svg11.dtd">
<svg version="1.1" xmlns="http://www.w3.org/2000/svg" xmlns:xlink="http://www.w3.org/1999/xlink" preserveAspectRatio="xMidYMid meet" viewBox="0 0 900 900" width="900" height="900"><defs><path d="M900 454.1C900 432.23 877.07 417.95 857.45 427.58C807 452.35 735.98 455.83 644.38 438.03C475.98 405.29 427.95 393.12 266.85 394.38C171.58 395.13 92.34 405.05 29.13 424.15C11.83 429.37 0 445.31 0 463.38C0 505.54 0 581.3 0 618.39C0 645.21 26.97 663.63 51.95 653.88C105.26 633.08 174.27 622.68 258.99 622.68C420.08 622.68 495.93 672.48 644.38 674.16C727.68 675.1 799.61 669.28 860.17 656.69C883.37 651.87 900 631.43 900 607.74C900 567.53 900 492.96 900 454.1Z" id="g2RxHzDUkM"></path></defs><g><g><g><use xlink:href="#g2RxHzDUkM" opacity="1" fill="#3dc189" fill-opacity="1"></use></g></g></g></svg>